<svg id="Group_2433" data-name="Group 2433" xmlns="http://www.w3.org/2000/svg" width="164" height="171.57" viewBox="0 0 164 171.57">
  <g id="undraw_access_account_re_8spm_1_" data-name="undraw_access_account_re_8spm (1)" transform="translate(32.905 29.426)">
    <path id="Path_1" data-name="Path 1" d="M246.681,668.515l1.249-4.927a63.959,63.959,0,0,1,6.788-2.435l.158,2.29.639-2.523c2.861-.818,4.807-1.177,4.807-1.177s-2.628,10-8.142,17.638l-6.424,1.129,4.991.72a25.879,25.879,0,0,1-2.232,2.366c-8.02,7.445-16.954,10.86-19.953,7.629s1.071-11.886,9.092-19.33a34.083,34.083,0,0,1,8.736-5.618Z" transform="translate(-129.227 -548.663)" fill="#eff0f2"/>
    <path id="Path_2" data-name="Path 2" d="M320.894,615.812l-1.477-4.863a63.966,63.966,0,0,1,4.551-5.593l1.319,1.879-.756-2.49c2.026-2.178,3.506-3.492,3.506-3.492s2.917,9.916,2.147,19.307l-4.916,4.287,4.645-1.964a25.879,25.879,0,0,1-.688,3.179c-3.018,10.519-8.9,18.06-13.137,16.845s-5.227-10.728-2.209-21.247a34.084,34.084,0,0,1,4.575-9.325Z" transform="translate(-215.321 -501.311)" fill="#eff0f2"/>
    <path id="Path_22" data-name="Path 22" d="M375.962,110.166h.779V88.818A12.356,12.356,0,0,1,389.1,76.462h45.231a12.356,12.356,0,0,1,12.356,12.356v117.12a12.356,12.356,0,0,1-12.356,12.356H389.1a12.356,12.356,0,0,1-12.356-12.356V125.362h-.779Z" transform="translate(-343.848 -76.462)" fill="#eff0f2"/>
    <path id="Path_23" data-name="Path 23" d="M403.093,93.335H409a4.384,4.384,0,0,0,4.059,6.04h25.912a4.384,4.384,0,0,0,4.059-6.04h5.514a9.228,9.228,0,0,1,9.228,9.228v116.95a9.228,9.228,0,0,1-9.228,9.228H403.093a9.228,9.228,0,0,1-9.228-9.228h0V102.563a9.228,9.228,0,0,1,9.227-9.227Z" transform="translate(-358.341 -90.122)" fill="#fff"/>
    <path id="Path_6" data-name="Path 6" d="M509.119,318.167a4.654,4.654,0,0,0-2.33-4.033,4.656,4.656,0,1,1,0,8.065,4.653,4.653,0,0,0,2.329-4.032Z" transform="translate(-435.852 -268.366)" fill="#ccc"/>
    <path id="Path_7" data-name="Path 7" d="M539.857,318.167a4.654,4.654,0,0,0-2.33-4.033,4.656,4.656,0,1,1,0,8.065,4.653,4.653,0,0,0,2.329-4.032Z" transform="translate(-472.444 -268.366)" fill="#ccc"/>
    <ellipse id="Ellipse_1" data-name="Ellipse 1" cx="4.656" cy="4.656" rx="4.656" ry="4.656" transform="translate(57.037 45.144)" fill="#0070fc"/>
    <path id="Path_8" data-name="Path 8" d="M486.229,290.683h27.138a.976.976,0,0,0,.974-.974V262.571a.976.976,0,0,0-.974-.974H486.229a.976.976,0,0,0-.974.974v27.138A.976.976,0,0,0,486.229,290.683Zm27.138-28.7a.585.585,0,0,1,.585.585v27.138a.585.585,0,0,1-.585.585H486.229a.585.585,0,0,1-.585-.585V262.571a.585.585,0,0,1,.585-.585Z" transform="translate(-432.318 -226.34)" fill="#ccc"/>
    <rect id="Rectangle_1" data-name="Rectangle 1" width="41.621" height="0.39" transform="translate(47.852 85.146)" fill="#ccc"/>
    <ellipse id="Ellipse_2" data-name="Ellipse 2" cx="1.314" cy="1.314" rx="1.314" ry="1.314" transform="translate(86.844 80.083)" fill="#0070fc"/>
    <rect id="Rectangle_2" data-name="Rectangle 2" width="41.621" height="0.39" transform="translate(47.852 98.289)" fill="#ccc"/>
    <ellipse id="Ellipse_3" data-name="Ellipse 3" cx="1.314" cy="1.314" rx="1.314" ry="1.314" transform="translate(86.844 93.227)" fill="#0070fc"/>
    <path id="Path_7735" data-name="Path 7735" d="M587.979,644.288h13.153a.858.858,0,0,0,.857-.857v-4.61a.858.858,0,0,0-.857-.857H587.979a.858.858,0,0,0-.857.857v4.61A.858.858,0,0,0,587.979,644.288Z" transform="translate(-539.366 -531.032)" fill="#0e0071"/>
    <ellipse id="Ellipse_7" data-name="Ellipse 7" cx="1.314" cy="1.314" rx="1.314" ry="1.314" transform="translate(82.556 80.083)" fill="#0070fc"/>
    <ellipse id="Ellipse_8" data-name="Ellipse 8" cx="1.314" cy="1.314" rx="1.314" ry="1.314" transform="translate(78.269 80.083)" fill="#0070fc"/>
    <ellipse id="Ellipse_9" data-name="Ellipse 9" cx="1.314" cy="1.314" rx="1.314" ry="1.314" transform="translate(82.556 93.227)" fill="#0070fc"/>
    <ellipse id="Ellipse_10" data-name="Ellipse 10" cx="1.314" cy="1.314" rx="1.314" ry="1.314" transform="translate(78.269 93.227)" fill="#0070fc"/>
    <path id="Path_7736" data-name="Path 7736" d="M790.356,541.409a1.93,1.93,0,0,0-.269.15l-8.542-3.646-.3-2.25-3.413-.021.2,5.161,11.274,2.982a2.009,2.009,0,0,0,.085.23,1.949,1.949,0,1,0,.967-2.606Z" transform="translate(-766.797 -448.196)" fill="#ffb8b8"/>
    <path id="Path_7737" data-name="Path 7737" d="M618.888,696.738h2.335l1.111-9.005h-3.446Z" transform="translate(-609.099 -556.762)" fill="#ffb8b8"/>
    <path id="Path_7738" data-name="Path 7738" d="M605.579,731.518h-4.5v2.835h7.338A2.835,2.835,0,0,0,605.579,731.518Z" transform="translate(-591.787 -592.208)" fill="#2f2e41"/>
    <path id="Path_7739" data-name="Path 7739" d="M662.018,693.459l2.324.229,1.988-8.853L662.9,684.5Z" transform="translate(-661.309 -554.142)" fill="#ffb8b8"/>
    <path id="Path_7740" data-name="Path 7740" d="M2.835,2.835h4.5V0H0A2.835,2.835,0,0,0,2.835,2.835Z" transform="matrix(-0.995, -0.098, 0.098, -0.995, 7.302, 142.144)" fill="#2f2e41"/>
    <ellipse id="Ellipse_3641" data-name="Ellipse 3641" cx="4.677" cy="4.677" rx="4.677" ry="4.677" transform="translate(4.462 68.56)" fill="#ffb8b8"/>
    <path id="Path_7741" data-name="Path 7741" d="M830.083,661.989a.852.852,0,0,0,.841-.7c1.208-6.708,5.159-28.643,5.253-29.251a.287.287,0,0,0,0-.042v-1.636a.284.284,0,0,0-.053-.166l-.522-.731a.282.282,0,0,0-.218-.119c-2.975-.139-12.718-.548-13.189.04h0c-.473.591-.306,2.382-.267,2.735l0,.037-4.377,27.994a.859.859,0,0,0,.708.978l2.734.45a.861.861,0,0,0,.957-.589c.846-2.7,3.681-11.792,4.664-15.309a.1.1,0,0,1,.187.026c-.049,3.353-.168,11.907-.209,14.861l0,.318a.86.86,0,0,0,.779.864l2.636.24C830.03,661.988,830.057,661.989,830.083,661.989Z" transform="translate(-817.437 -523.833)" fill="#2f2e41"/>
    <path id="Path_99" data-name="Path 99" d="M828.019,493.4a3.911,3.911,0,0,1,1.585,2.284,21.651,21.651,0,0,1,.93,5.172l.3,5.256,3.667,13.934c-3.178,2.689-5.011,2.078-9.29-.122s-4.767.733-4.767.733l-.856-11.856-1.222-12.956a5.746,5.746,0,0,1,.926-.89,9.457,9.457,0,0,1,8.083-1.713Z" transform="translate(-815.911 -413.649)" fill="#fff"/>
    <path id="Path_7742" data-name="Path 7742" d="M844.544,552.544a2,2,0,0,0-.286.134l-8.446-4.227-.14-2.29-3.484-.24-.187,5.22,11.287,3.732a2,2,0,1,0,1.256-2.329Z" transform="translate(-831.245 -456.517)" fill="#ffb8b8"/>
    <path id="Path_101" data-name="Path 101" d="M881.753,507.339c-2.078.733-2.444,8.679-2.444,8.679,2.445-1.345,5.378.856,5.378.856s.611-2.078,1.345-4.767a4.671,4.671,0,0,0-.978-4.4A3.328,3.328,0,0,0,881.753,507.339Z" transform="translate(-879.24 -425.079)" fill="#fff"/>
    <path id="Path_102" data-name="Path 102" d="M844.118,434.518c.583-.466,1.378.381,1.378.381l.466-4.2a16.66,16.66,0,0,0,4.779-.116c1.865-.466,2.156,1.69,2.156,1.69a14.961,14.961,0,0,0,.058-2.623c-.116-1.049-1.632-2.1-4.313-2.8s-4.079,2.331-4.079,2.331C842.7,430.12,843.535,434.984,844.118,434.518Z" transform="translate(-839.172 -360.043)" fill="#2f2e41"/>
  </g>
  <g id="Group_2412" data-name="Group 2412" transform="translate(0)">
    <ellipse id="Ellipse_44" data-name="Ellipse 44" cx="4.347" cy="4.347" rx="4.347" ry="4.347" transform="translate(108.646)" fill="#00c158" opacity="0.4"/>
    <ellipse id="Ellipse_44-2" data-name="Ellipse 44" cx="4.347" cy="4.347" rx="4.347" ry="4.347" transform="translate(8.071 130.733)" fill="#ba0101"/>
    <ellipse id="Ellipse_44-3" data-name="Ellipse 44" cx="2.65" cy="2.65" rx="2.65" ry="2.65" transform="translate(158.7 27.276)" fill="#fa0"/>
    <ellipse id="Ellipse_44-4" data-name="Ellipse 44" cx="2.65" cy="2.65" rx="2.65" ry="2.65" transform="translate(0 39.724)" fill="#fa0"/>
    <ellipse id="Ellipse_44-5" data-name="Ellipse 44" cx="2.65" cy="2.65" rx="2.65" ry="2.65" transform="translate(49.927 8.693)" fill="#0070fc"/>
  </g>
</svg>
